#
#
#

mtllib cube.mtl


#
# cube Mesh
#
g cube Mesh


#
# cube Mesh_cube
#
usemtl cube Mesh_cube

v -0.123025 -0.849669 -0.113698
v 0.561725 -0.441106 0.489787
v -0.808684 -0.207893 0.229804
v -0.123935 0.200671 0.833290
v -0.561725 0.441106 -0.489787
v 0.123025 0.849669 0.113698
v 0.123935 -0.200671 -0.833290
v 0.808684 0.207893 -0.229804
vn -0.246960 -0.648999 0.719591
vn -0.685660 0.641776 0.343503
vn 0.246960 0.648999 -0.719591
vn 0.685660 -0.641776 -0.343503
vn 0.684749 0.408563 0.603485
vn -0.684749 -0.408563 -0.603485
vt 0.000000 0.000000
vt 1.000000 0.000000
vt 0.000000 1.000000
vt 1.000000 1.000000
f 1/1/1 2/2/1 3/3/1
f 3/3/1 2/2/1 4/4/1
f 3/1/2 4/2/2 5/3/2
f 5/3/2 4/2/2 6/4/2
f 5/4/3 6/3/3 7/2/3
f 7/2/3 6/3/3 8/1/3
f 7/1/4 8/2/4 1/3/4
f 1/3/4 8/2/4 2/4/4
f 2/1/5 8/2/5 4/3/5
f 4/3/5 8/2/5 6/4/5
f 7/1/6 1/2/6 5/3/6
f 5/3/6 1/2/6 3/4/6
